<svg width="145" height="35" viewBox="0 0 145 35" fill="none" xmlns="http://www.w3.org/2000/svg">
<path d="M6.23784 10.3059V21.023C6.23784 21.9078 6.42586 22.5382 6.8019 22.9143C7.17794 23.2682 7.83048 23.4451 8.75952 23.4451H10.9826V26H8.26182C6.5807 26 5.31986 25.6129 4.4793 24.8387C3.63874 24.0645 3.21846 22.7926 3.21846 21.023V10.3059H0.86268V7.81736H3.21846V3.23852H6.23784V7.81736H10.9826V10.3059H6.23784ZM17.6603 10.7704C18.1912 9.73074 18.9433 8.92336 19.9166 8.34824C20.912 7.77312 22.1175 7.48556 23.5332 7.48556V10.6045H22.7369C19.3525 10.6045 17.6603 12.4404 17.6603 16.1124V26H14.6409V7.81736H17.6603V10.7704ZM25.8905 16.8423C25.8905 14.9842 26.2665 13.3584 27.0186 11.9649C27.7707 10.5492 28.7993 9.45424 30.1044 8.68004C31.4316 7.90584 32.9025 7.51874 34.5173 7.51874C36.1099 7.51874 37.4924 7.8616 38.6648 8.54732C39.8372 9.23304 40.7109 10.0957 41.286 11.1354V7.81736H44.3386V26H41.286V22.6156C40.6888 23.6774 39.7929 24.5622 38.5984 25.27C37.4261 25.9558 36.0546 26.2986 34.4841 26.2986C32.8694 26.2986 31.4094 25.9005 30.1044 25.1041C28.7993 24.3078 27.7707 23.1908 27.0186 21.753C26.2665 20.3152 25.8905 18.6783 25.8905 16.8423ZM41.286 16.8755C41.286 15.5041 41.0095 14.3096 40.4565 13.2921C39.9035 12.2745 39.1514 11.5003 38.2003 10.9695C37.2712 10.4165 36.2427 10.14 35.1145 10.14C33.9864 10.14 32.9578 10.4054 32.0288 10.9363C31.0998 11.4672 30.3587 12.2414 29.8057 13.2589C29.2527 14.2764 28.9762 15.4709 28.9762 16.8423C28.9762 18.2359 29.2527 19.4525 29.8057 20.4921C30.3587 21.5096 31.0998 22.2949 32.0288 22.8479C32.9578 23.3788 33.9864 23.6442 35.1145 23.6442C36.2427 23.6442 37.2712 23.3788 38.2003 22.8479C39.1514 22.2949 39.9035 21.5096 40.4565 20.4921C41.0095 19.4525 41.286 18.2469 41.286 16.8755ZM56.2098 23.2129L61.8504 7.81736H65.0688L57.9351 26H54.4181L47.2844 7.81736H50.536L56.2098 23.2129ZM84.63 16.2119C84.63 16.787 84.5968 17.3953 84.5305 18.0368H69.9976C70.1082 19.8285 70.7165 21.2331 71.8225 22.2507C72.9506 23.2461 74.311 23.7438 75.9037 23.7438C77.2087 23.7438 78.2926 23.4451 79.1553 22.8479C80.0401 22.2285 80.6595 21.4101 81.0134 20.3926H84.265C83.7784 22.1401 82.8051 23.5668 81.3452 24.6728C79.8853 25.7567 78.0714 26.2986 75.9037 26.2986C74.1783 26.2986 72.6299 25.9115 71.2585 25.1373C69.9091 24.3631 68.8474 23.2682 68.0732 21.8525C67.299 20.4147 66.9119 18.7557 66.9119 16.8755C66.9119 14.9953 67.2879 13.3474 68.04 11.9317C68.7921 10.516 69.8428 9.43212 71.1921 8.68004C72.5635 7.90584 74.1341 7.51874 75.9037 7.51874C77.629 7.51874 79.1553 7.89478 80.4825 8.64686C81.8097 9.39894 82.8272 10.4386 83.5351 11.7658C84.265 13.0709 84.63 14.5529 84.63 16.2119ZM81.5111 15.5815C81.5111 14.4312 81.2567 13.4469 80.7479 12.6285C80.2392 11.7879 79.5424 11.1575 78.6576 10.7372C77.7949 10.2948 76.8327 10.0736 75.7709 10.0736C74.2447 10.0736 72.9396 10.5602 71.8557 11.5335C70.7939 12.5068 70.1856 13.8561 70.0308 15.5815H81.5111ZM91.6349 1.4468V26H88.6155V1.4468H91.6349ZM95.6528 16.8423C95.6528 14.9842 96.0288 13.3584 96.7809 11.9649C97.533 10.5492 98.5615 9.45424 99.8666 8.68004C101.194 7.90584 102.665 7.51874 104.28 7.51874C105.872 7.51874 107.255 7.8616 108.427 8.54732C109.599 9.23304 110.473 10.0957 111.048 11.1354V7.81736H114.101V26H111.048V22.6156C110.451 23.6774 109.555 24.5622 108.361 25.27C107.188 25.9558 105.817 26.2986 104.246 26.2986C102.632 26.2986 101.172 25.9005 99.8666 25.1041C98.5615 24.3078 97.533 23.1908 96.7809 21.753C96.0288 20.3152 95.6528 18.6783 95.6528 16.8423ZM111.048 16.8755C111.048 15.5041 110.772 14.3096 110.219 13.2921C109.666 12.2745 108.914 11.5003 107.963 10.9695C107.033 10.4165 106.005 10.14 104.877 10.14C103.749 10.14 102.72 10.4054 101.791 10.9363C100.862 11.4672 100.121 12.2414 99.568 13.2589C99.015 14.2764 98.7385 15.4709 98.7385 16.8423C98.7385 18.2359 99.015 19.4525 99.568 20.4921C100.121 21.5096 100.862 22.2949 101.791 22.8479C102.72 23.3788 103.749 23.6442 104.877 23.6442C106.005 23.6442 107.033 23.3788 107.963 22.8479C108.914 22.2949 109.666 21.5096 110.219 20.4921C110.772 19.4525 111.048 18.2469 111.048 16.8755ZM120.829 4.86434C120.254 4.86434 119.767 4.66526 119.369 4.2671C118.993 3.86894 118.805 3.3823 118.805 2.80718C118.805 2.23206 118.993 1.74542 119.369 1.34726C119.767 0.949099 120.254 0.750019 120.829 0.750019C121.404 0.750019 121.88 0.949099 122.256 1.34726C122.654 1.74542 122.853 2.23206 122.853 2.80718C122.853 3.3823 122.654 3.86894 122.256 4.2671C121.88 4.66526 121.404 4.86434 120.829 4.86434ZM122.322 29.9484C122.322 31.5632 121.913 32.7466 121.095 33.4987C120.276 34.2508 119.082 34.6268 117.511 34.6268H115.753V32.0719H117.013C117.854 32.0719 118.44 31.906 118.772 31.5742C119.126 31.2424 119.303 30.6784 119.303 29.8821V7.81736H122.322V29.9484ZM126.305 16.8423C126.305 14.9842 126.681 13.3584 127.433 11.9649C128.186 10.5492 129.214 9.45424 130.519 8.68004C131.846 7.90584 133.317 7.51874 134.932 7.51874C136.525 7.51874 137.907 7.8616 139.08 8.54732C140.252 9.23304 141.126 10.0957 141.701 11.1354V7.81736H144.753V26H141.701V22.6156C141.104 23.6774 140.208 24.5622 139.013 25.27C137.841 25.9558 136.47 26.2986 134.899 26.2986C133.284 26.2986 131.824 25.9005 130.519 25.1041C129.214 24.3078 128.186 23.1908 127.433 21.753C126.681 20.3152 126.305 18.6783 126.305 16.8423ZM141.701 16.8755C141.701 15.5041 141.424 14.3096 140.871 13.2921C140.318 12.2745 139.566 11.5003 138.615 10.9695C137.686 10.4165 136.658 10.14 135.529 10.14C134.401 10.14 133.373 10.4054 132.444 10.9363C131.515 11.4672 130.774 12.2414 130.221 13.2589C129.668 14.2764 129.391 15.4709 129.391 16.8423C129.391 18.2359 129.668 19.4525 130.221 20.4921C130.774 21.5096 131.515 22.2949 132.444 22.8479C133.373 23.3788 134.401 23.6442 135.529 23.6442C136.658 23.6442 137.686 23.3788 138.615 22.8479C139.566 22.2949 140.318 21.5096 140.871 20.4921C141.424 19.4525 141.701 18.2469 141.701 16.8755Z" fill="white"/>
</svg>
